<svg xmlns="http://www.w3.org/2000/svg" width="124.973" height="52.284" viewBox="0 0 124.973 52.284">
  <g id="Group_11751" data-name="Group 11751" transform="translate(-897.514 -59)">
    <g id="Group_11487" data-name="Group 11487">
      <path id="Path_782" data-name="Path 782" d="M284.573,8.919h0a10.367,10.367,0,0,0,6.36,6.36h0a10.368,10.368,0,0,0-6.36,6.36h0a10.368,10.368,0,0,0-6.36-6.36h0a10.367,10.367,0,0,0,6.36-6.36Z" transform="translate(692.666 50.081)" fill="#e6dac7"/>
      <g id="Group_27" data-name="Group 27" transform="translate(925.241 85.143)">
        <path id="Path_783" data-name="Path 783" d="M122.007,111.194c0,1.355,1.136,1.979,2.895,3.151,2.272,1.5,3.115,2.455,3.115,4.323a4.213,4.213,0,0,1-1.576,3.078,7.548,7.548,0,0,1-3.884,1.136,10.976,10.976,0,0,1-3.261-.623,1.36,1.36,0,0,1-.7-.733c-.037-.513-.146-1.722-.183-2.089-.037-.44.037-.769.183-.769s.294.147.513.769a4.853,4.853,0,0,0,1.539,2.308,2.761,2.761,0,0,0,1.9.477,2.013,2.013,0,0,0,2.088-1.869c0-.916-.659-1.685-2.71-3-2.382-1.5-2.968-3.261-2.968-4.36a3.931,3.931,0,0,1,1.979-3.445,5.913,5.913,0,0,1,3.151-.806,9.523,9.523,0,0,1,3.041.476.594.594,0,0,1,.183.4c.037.366.147.952.22,2.052,0,.44-.074.623-.257.623-.147,0-.22-.183-.33-.477a3.5,3.5,0,0,0-.952-1.759,2.775,2.775,0,0,0-1.979-.733A2.107,2.107,0,0,0,122.007,111.194Z" transform="translate(-118.408 -106.375)" fill="#e6dac7"/>
        <path id="Path_784" data-name="Path 784" d="M160.37,115.21a4.913,4.913,0,0,1-.4-2.345v-7.548a.608.608,0,0,0-.257-.549c-.146-.074-.293-.147-.476-.22-.33-.11-.513-.183-.513-.4,0-.11.118-.308.623-.444,1.238-.22,2.257-.875,3.7-2.78.623-.659.843-.476.843-.256,0,.183-.037,1.942-.037,2.162,0,.11.037.4.22.4.7-.037,2.894-.109,3.443-.073a.852.852,0,0,1,.331.769c0,.843-.294.806-.44.806h-2.858c-.44,0-.55.146-.55.329,0,.917-.073,6.852-.036,7.768a2.5,2.5,0,0,0,.4,1.539,2.2,2.2,0,0,0,1.576.733,2.942,2.942,0,0,0,1.539-.4c.439-.257.512-.11.512,0,0,.183-.146.476-.733.989a5.206,5.206,0,0,1-3.481,1.173A3.73,3.73,0,0,1,160.37,115.21Z" transform="translate(-147.208 -100.462)" fill="#e6dac7"/>
        <path id="Path_785" data-name="Path 785" d="M191.1,109.527a20.366,20.366,0,0,0,4.543-1.465,1.1,1.1,0,0,1,.513-.22c.147,0,.22.366.22.7,0,3.7-.037,7.365-.073,11.029,0,1.392-.037,2.015-.11,3.3a10.347,10.347,0,0,1-5.862,8.867c-.477.22-.953.183-.953-.073,0-.147.11-.22.4-.366,1.576-.88,2.236-2.382,2.419-5.13a27.235,27.235,0,0,0,.109-3.151c0-2.345.037-7.731-.074-10.15a4.268,4.268,0,0,0-.293-2.015,4.491,4.491,0,0,0-.843-.659c-.22-.147-.366-.257-.366-.4S191.067,109.527,191.1,109.527Z" transform="translate(-169.112 -105.734)" fill="#e6dac7"/>
        <path id="Path_786" data-name="Path 786" d="M236.349,112.769a.574.574,0,0,1-.439.587c-.44-.037-4.946-.11-5.936-.11h-1.1c-.11,0-.257.183-.293.294a4.9,4.9,0,0,0-.147,1.282,5.9,5.9,0,0,0,1.576,4.287,4.527,4.527,0,0,0,2.968,1.355,4.415,4.415,0,0,0,3.37-1.063c.257-.256.4-.183.4,0a.876.876,0,0,1-.183.513,6.575,6.575,0,0,1-5.5,2.968,6.118,6.118,0,0,1-4.653-1.9,7.419,7.419,0,0,1-1.759-4.947,7.531,7.531,0,0,1,2.565-5.715,6.885,6.885,0,0,1,4.47-1.576C234.59,108.739,236.349,110.754,236.349,112.769Zm-6.851-2.345a4.348,4.348,0,0,0-.77,2.016c0,.073.037.22.147.22h2.931c1.1,0,1.173-.623,1.173-.953a3.141,3.141,0,0,0-.513-1.869,1.446,1.446,0,0,0-1.136-.586C230.524,109.252,230.048,109.729,229.5,110.424Z" transform="translate(-194.317 -106.375)" fill="#e6dac7"/>
        <path id="Path_787" data-name="Path 787" d="M276.433,111.286a1.107,1.107,0,0,0-.294.623,22.392,22.392,0,0,0-.109,3.078c0,2.565.109,3.921.183,4.764.146,1.1.293,1.355,1.685,1.538.513.11.623.22.623.4s-.294.257-.733.257c-1.173,0-1.613-.147-3.481-.147-2.565,0-2.308.147-3.371.147-.477,0-.733-.11-.733-.257,0-.183.11-.329.549-.4.916-.183,1.136-.476,1.209-1.5.037-.623.073-2.675.11-5.093a33.628,33.628,0,0,0,0-3.591c0-.183-.037-.22-.916-.953-.22-.183-.293-.292-.293-.4s.256-.256.366-.293a27.389,27.389,0,0,0,3.994-1.393,1.23,1.23,0,0,1,.659-.22c.074,0,.183.22.183.366,0,.769-.109,1.575-.109,2.491,0,.183.183.22.22.147.99-1.429,2.272-2.711,3.664-2.711a2.359,2.359,0,0,1,1.209.33c.44.294.587.477.587.806a4.149,4.149,0,0,1-1.173,1.979c-.4.4-.623.512-.807.512a1.035,1.035,0,0,1-.623-.256,3.015,3.015,0,0,0-1.5-.66A1.339,1.339,0,0,0,276.433,111.286Z" transform="translate(-226.853 -105.734)" fill="#e6dac7"/>
        <path id="Path_788" data-name="Path 788" d="M324.83,109.293c.88.842,1.282,2.455,1.282,4.58.073,2.2.073,2.565.11,4.727.037,2.2.22,2.528,1.209,2.748.183.037.4.146.4.329,0,.11-.183.22-.512.22-.989,0-2.236-.11-2.931-.11a27.89,27.89,0,0,0-3.371.147c-.366,0-.623-.11-.623-.257s.22-.256.44-.329c1.063-.33,1.246-.55,1.246-1.32v-5.569c0-2.748-.183-3.481-1.026-4.14a2.692,2.692,0,0,0-1.612-.44,2.886,2.886,0,0,0-1.612.513.744.744,0,0,0-.293.586c0,.843.037,2.455.037,4.213,0,2.236.073,4.4.11,4.8.109.806.256,1.062.952,1.282.44.147.587.22.587.4,0,.22-.44.257-.66.257-.4,0-2.6-.147-3.408-.147-.512,0-1.539.073-2.784.073-.44,0-.733-.109-.733-.293s.33-.33.623-.366c1.062-.183,1.1-.513,1.135-1.393.074-1.906.147-5.056.147-8.537,0-.366-.11-.623-.806-1.136-.366-.256-.293-.329-.293-.4,0-.11.183-.256.512-.293a19.779,19.779,0,0,0,4.323-1.612c.11-.037.294.109.294.292a13.111,13.111,0,0,0-.073,1.759c0,.073.146.11.219.037a8.643,8.643,0,0,1,1.979-1.355,5.334,5.334,0,0,1,2.125-.476A4.077,4.077,0,0,1,324.83,109.293Z" transform="translate(-256.456 -105.72)" fill="#e6dac7"/>
        <path id="Path_789" data-name="Path 789" d="M385.036,112.769a.574.574,0,0,1-.439.587c-.44-.037-4.947-.11-5.936-.11h-1.1c-.109,0-.256.183-.293.294a4.9,4.9,0,0,0-.146,1.282,5.9,5.9,0,0,0,1.576,4.287,4.526,4.526,0,0,0,2.967,1.355,4.416,4.416,0,0,0,3.371-1.063c.256-.256.4-.183.4,0a.871.871,0,0,1-.183.513,6.574,6.574,0,0,1-5.5,2.968,6.116,6.116,0,0,1-4.652-1.9,7.415,7.415,0,0,1-1.759-4.947,7.532,7.532,0,0,1,2.565-5.715,6.885,6.885,0,0,1,4.47-1.576C383.277,108.739,385.036,110.754,385.036,112.769Zm-6.852-2.345a4.345,4.345,0,0,0-.769,2.016c0,.073.037.22.146.22h2.931c1.1,0,1.173-.623,1.173-.953a3.139,3.139,0,0,0-.513-1.869,1.446,1.446,0,0,0-1.135-.586C379.21,109.252,378.734,109.729,378.184,110.424Z" transform="translate(-300.541 -106.375)" fill="#e6dac7"/>
        <path id="Path_790" data-name="Path 790" d="M425.119,111.286a1.108,1.108,0,0,0-.293.623,22.47,22.47,0,0,0-.109,3.078c0,2.565.109,3.921.183,4.764.147,1.1.293,1.355,1.685,1.538.513.11.623.22.623.4s-.293.257-.733.257c-1.173,0-1.612-.147-3.481-.147-2.565,0-2.308.147-3.37.147-.477,0-.733-.11-.733-.257,0-.183.11-.329.549-.4.916-.183,1.136-.476,1.209-1.5.036-.623.073-2.675.109-5.093a33.312,33.312,0,0,0,0-3.591c0-.183-.037-.22-.916-.953-.22-.183-.293-.292-.293-.4s.256-.256.366-.293a27.341,27.341,0,0,0,3.993-1.393,1.233,1.233,0,0,1,.66-.22c.073,0,.183.22.183.366,0,.769-.11,1.575-.11,2.491,0,.183.183.22.22.147.989-1.429,2.271-2.711,3.664-2.711a2.358,2.358,0,0,1,1.209.33c.439.294.586.477.586.806a4.149,4.149,0,0,1-1.173,1.979c-.4.4-.623.512-.806.512a1.035,1.035,0,0,1-.623-.256,3.017,3.017,0,0,0-1.5-.66A1.339,1.339,0,0,0,425.119,111.286Z" transform="translate(-333.077 -105.734)" fill="#e6dac7"/>
      </g>
      <g id="Group_28" data-name="Group 28" transform="translate(897.514 62.492)">
        <path id="Path_791" data-name="Path 791" d="M31.856,27.123l1.843-4.46a.187.187,0,0,1,.35,0c1.792,4.7,6.888,16.74,8.447,20.035.806,1.758,1.282,2.051,2.088,2.235.587.147.7.293.7.439s-.4.294-.733.294c-1.1,0-2.162-.183-3.883-.183-2.6,0-3.518.22-4.727.22-.512,0-.842-.036-.842-.256,0-.257.293-.366.733-.44.806-.146,1.758-.476,1.575-1.575-.256-1.209-4.668-14.112-5.547-16.311M26.085,41.894a2.728,2.728,0,0,0,.693,2.272c.44.513.916.586,1.722.806.4.11.587.257.587.4,0,.22-.366.257-.916.257-.733,0-1.942-.147-3.151-.147-.916,0-1.8.183-3.041.183-.4,0-.66-.037-.66-.256,0-.183.366-.257.733-.366,1.613-.366,2.346-.917,3.664-3.884C25.715,41.162,26.418,40.5,26.085,41.894Z" transform="translate(-21.318 -22.145)" fill="#e6dac7"/>
        <path id="Path_792" data-name="Path 792" d="M108.9,33.421a.44.44,0,0,0-.293-.477c-.22-.037-.55-.037-.806-.073-.293-.037-.55-.147-.55-.366,0-.11.183-.257.44-.4.476-.292,1.209-.623,1.209-1.1a12.936,12.936,0,0,1,.733-4.1c.55-1.539,2.346-5.753,7.365-5.753,1.649,0,2.9.734,2.9,1.612,0,.587-.99,1.576-1.32,1.686-.623.33-2.052-1.649-3.3-2.162a1.4,1.4,0,0,0-.623-.147c-.843.037-1.8.623-1.833,5.753a11.193,11.193,0,0,0,.11,2.931c.037.147.109.366.293.366h5.056a1.355,1.355,0,0,0,.549-.183c.916-.55,2.272-2.052,2.822-2.418.183-.11.33-.11.33.037,0,.183-.036,1.942-.036,2.162,0,.11.036.4.22.4.7,0,2.894-.073,3.444-.073.074,0,.257.073.257.549,0,.879-.22,1.1-.4,1.1-.989,0-2.235-.073-3.261-.073-.037,0-.11.146-.11.183,0,.842-.037,5.825-.037,7.4,0,2.345,1.43,2.674,1.979,2.674.733,0,2.015-.586,2.015-.329,0,1.1-2.529,2.2-4.178,2.2-2.418,0-3.81-.99-3.81-3.994V33.275c0-.183-.037-.44-.44-.44h-4.543c-.073,0-.183.22-.183.294-.074,1.356.11,7.987.146,9.013.074,1.429.44,1.539.77,1.685.66.147,1.576.366,1.576.587,0,.183-.293.256-.66.256-1.429,0-2.162-.183-4.8-.183-.843,0-1.612.073-2.235.11-.293,0-.55-.037-.55-.183s.184-.257.66-.4c.916-.292,1.1-.623,1.1-1.941Z" transform="translate(-82.633 -21.146)" fill="#e6dac7"/>
        <path id="Path_793" data-name="Path 793" d="M187.982,58.92a.575.575,0,0,1-.44.587c-.44-.037-4.947-.11-5.936-.11h-1.1c-.11,0-.256.183-.294.294a4.914,4.914,0,0,0-.146,1.282,5.9,5.9,0,0,0,1.576,4.287,4.524,4.524,0,0,0,2.967,1.355,4.418,4.418,0,0,0,3.372-1.063c.256-.256.4-.183.4,0a.865.865,0,0,1-.183.513,6.574,6.574,0,0,1-5.5,2.968,6.114,6.114,0,0,1-4.653-1.9,7.416,7.416,0,0,1-1.759-4.947,7.532,7.532,0,0,1,2.565-5.715,6.881,6.881,0,0,1,4.469-1.576C186.224,54.89,187.982,56.905,187.982,58.92Zm-6.852-2.345a4.353,4.353,0,0,0-.769,2.016c0,.073.037.22.147.22h2.931c1.1,0,1.172-.623,1.172-.953a3.145,3.145,0,0,0-.512-1.869,1.446,1.446,0,0,0-1.136-.586C182.156,55.4,181.68,55.88,181.13,56.575Z" transform="translate(-132.035 -45.253)" fill="#e6dac7"/>
        <path id="Path_794" data-name="Path 794" d="M235.154,55.444c.879.842,1.283,2.455,1.283,4.58.073,2.2.073,2.565.11,4.726.036,2.2.219,2.528,1.209,2.749.183.037.4.146.4.329,0,.11-.183.22-.512.22-.99,0-2.235-.11-2.932-.11a27.91,27.91,0,0,0-3.371.147c-.366,0-.623-.11-.623-.257s.22-.256.44-.329c1.063-.33,1.247-.55,1.247-1.32V60.61c0-2.748-.183-3.481-1.026-4.14a2.694,2.694,0,0,0-1.613-.44,2.884,2.884,0,0,0-1.612.513.744.744,0,0,0-.293.586c0,.843.037,2.455.037,4.213,0,2.236.073,4.4.109,4.8.11.807.257,1.063.952,1.283.44.147.587.22.587.4,0,.22-.44.257-.66.257-.4,0-2.6-.147-3.408-.147-.513,0-1.538.073-2.785.073-.439,0-.733-.11-.733-.293s.33-.33.623-.366c1.063-.183,1.1-.513,1.136-1.393.073-1.906.147-5.056.147-8.537,0-.366-.109-.623-.806-1.136-.366-.256-.293-.329-.293-.4,0-.11.183-.256.513-.293a19.771,19.771,0,0,0,4.324-1.612c.11-.037.293.11.293.293a13.2,13.2,0,0,0-.074,1.759c0,.073.146.11.22.037a8.625,8.625,0,0,1,1.979-1.355,5.334,5.334,0,0,1,2.125-.477A4.079,4.079,0,0,1,235.154,55.444Z" transform="translate(-164.662 -44.598)" fill="#e6dac7"/>
      </g>
    </g>
  </g>
</svg>
