<svg xmlns="http://www.w3.org/2000/svg" width="98.5" height="128.292" viewBox="0 0 98.5 128.292">
  <g id="Group_11531" data-name="Group 11531" transform="translate(-212.298 -6285)">
    <path id="Path_1328" data-name="Path 1328" d="M64.635,41.365l7.578-18.333a.77.77,0,0,1,1.439.014c7.367,19.327,28.313,68.811,34.721,82.357,3.313,7.227,5.271,8.433,8.584,9.186,2.411.6,2.862,1.206,2.862,1.806s-1.656,1.207-3.012,1.207c-4.518,0-8.887-.754-15.963-.754-10.7,0-14.46.9-19.432.9-2.106,0-3.462-.149-3.462-1.053,0-1.055,1.2-1.5,3.012-1.809,3.315-.6,7.227-1.956,6.474-6.474-1.053-4.971-19.189-58.01-22.8-67.049M40.912,102.088c-.976,4.084,1.493,7.68,2.849,9.339,1.807,2.11,3.766,2.409,7.077,3.313,1.659.453,2.412,1.055,2.412,1.655,0,.906-1.506,1.057-3.766,1.057-3.011,0-7.983-.6-12.954-.6-3.765,0-7.379.754-12.5.754-1.655,0-2.712-.15-2.712-1.053,0-.754,1.506-1.057,3.012-1.506,6.63-1.506,9.641-3.768,15.062-15.967C39.393,99.075,42.282,96.355,40.912,102.088Z" transform="translate(190.98 6295.542)" fill="#e6b14f"/>
    <path id="Path_1329" data-name="Path 1329" d="M293.062,8.919h0c1.823,6.15,8.509,12.635,14.85,14.4h0c-6.341,1.768-13.027,8.253-14.85,14.4h0c-1.823-6.15-8.509-12.635-14.849-14.4h0c6.341-1.768,13.026-8.252,14.849-14.4Z" transform="translate(-5.942 6276.081)" fill="#e6b14f"/>
  </g>
</svg>
